<svg x="0px" y="0px" width="495.424px" height="155.198px" viewBox="0 0 495.424 155.198" enable-background="new 0 0 495.424 155.198" xml:space="preserve">
<defs>
	<clipPath id="myClip">
<g id="Layer_2">
</g>
<g id="Layer_1">
	<g>
		<path fill-rule="evenodd" clip-rule="evenodd" d="M245.963,0c43.423,0.237,78.052,35.127,77.464,78.684
			c-0.584,43.21-35.795,77.945-80.398,76.469c-40.585-1.342-75.216-33.602-74.862-78.181C168.521,32.286,204.183,0.078,245.963,0z
			 M310.443,103.785c10.208-22.51,7.003-58.432-20.643-80.646c-29.073-23.361-70.125-19.78-94.99,6.4
			c-23.065,24.286-22.502,58.712-12.427,76.763c0.514-0.877,0.986-1.618,1.397-2.393c11.297-21.342,22.575-42.694,33.918-64.01
			c0.589-1.106,1.74-1.914,2.629-2.86c0.905,0.929,2.083,1.711,2.676,2.809c7.938,14.696,15.793,29.437,23.678,44.162
			c0.439,0.821,0.961,1.599,1.714,2.842c8.863-16.744,17.452-32.968,26.38-49.836c6.193,11.607,12.026,22.548,17.867,33.483
			C298.496,81.452,304.356,92.401,310.443,103.785z M183.558,109.273c9.578,20.813,37.375,43.199,74.093,37.497
			c21.477-3.335,50.583-25.98,52.041-41.682c-17.077,0-34.152,0-51.261,0c0.486,3.706,0.112,4.122-3.492,4.18
			c-0.908,0.014-1.816,0.006-2.724,0.006c-21.699,0-43.397,0-65.096-0.001C186.058,109.273,184.997,109.273,183.558,109.273z"/>
		<path fill-rule="evenodd" clip-rule="evenodd" d="M356.336,113.24c-16.271-0.026-29.404-13.032-29.331-29.135
			c0.072-15.956,12.772-29.242,29.622-29.205c16.36,0.036,29.313,13.126,29.32,29.22
			C385.954,100.373,372.843,113.267,356.336,113.24z M341.385,84.06c-0.034,8.609,6.712,15.835,14.885,15.944
			c8.245,0.108,15.378-7.2,15.401-15.781c0.023-8.551-6.808-15.803-14.97-15.893C348.308,68.239,341.419,75.313,341.385,84.06z"/>
		<path fill-rule="evenodd" clip-rule="evenodd" d="M70.951,56.22c0,8.241,0,16.178,0,24.935
			c11.85-8.836,23.054-17.191,34.767-25.925c0.138,1.473,0.284,2.315,0.285,3.158c0.013,16.796-0.03,33.592,0.056,50.388
			c0.012,2.349-0.66,3.299-3.072,3.173c-2.897-0.152-5.811-0.104-8.713-0.019c-1.991,0.059-2.69-0.724-2.664-2.733
			c0.091-7.171,0.034-14.344,0.033-21.517c0-0.971,0-1.942,0-3.682c-11.705,9.564-22.878,18.694-34.622,28.29
			c-0.119-1.649-0.242-2.577-0.244-3.504c-0.031-16.433,0.009-32.865-0.125-49.297c-0.021-2.644,0.761-3.477,3.368-3.318
			C63.448,56.378,66.899,56.22,70.951,56.22z"/>
		<path fill-rule="evenodd" clip-rule="evenodd" d="M131.871,76.214c5.56,0,10.8,0,16.443,0c0-4.91-0.03-9.689,0.007-14.469
			c0.051-6.454-0.734-5.426,5.457-5.521c1.998-0.03,4.006,0.123,5.991-0.037c2.271-0.184,2.973,0.682,2.956,2.932
			c-0.088,11.805-0.04,23.611-0.04,35.417c0,4.995-0.054,9.99,0.023,14.983c0.028,1.86-0.618,2.627-2.527,2.567
			c-3.175-0.101-6.357-0.086-9.534-0.007c-1.803,0.045-2.367-0.751-2.351-2.456c0.054-5.813-0.06-11.626,0.057-17.436
			c0.041-2.063-0.688-2.703-2.676-2.644c-3.811,0.113-7.63,0.123-11.44-0.003c-2.066-0.068-2.635,0.708-2.595,2.701
			c0.116,5.719-0.029,11.442,0.077,17.162c0.037,2.007-0.619,2.768-2.646,2.688c-3.083-0.12-6.176-0.102-9.26-0.008
			c-1.796,0.056-2.412-0.719-2.41-2.416c0.021-17.072,0.018-34.145,0.001-51.218c-0.001-1.56,0.539-2.304,2.237-2.254
			c3.266,0.096,6.54,0.109,9.805-0.003c1.888-0.064,2.281,0.797,2.26,2.46c-0.066,5.267-0.025,10.534-0.012,15.801
			C131.695,74.978,131.796,75.502,131.871,76.214z"/>
		<path fill-rule="evenodd" clip-rule="evenodd" d="M411.713,76.242c5.72,0,10.958,0,16.482,0c0.053-1.056,0.139-2.018,0.143-2.98
			c0.015-4.904,0.018-9.808,0.003-14.711c-0.004-1.269,0.038-2.362,1.796-2.335c3.541,0.056,7.088-0.072,10.622,0.095
			c0.636,0.03,1.333,1.033,1.789,1.728c0.253,0.386,0.075,1.061,0.075,1.605c0.003,16.256,0.008,32.511-0.002,48.767
			c-0.001,3.64-0.023,3.645-3.598,3.653c-2.725,0.006-5.452-0.077-8.173,0.023c-1.866,0.069-2.57-0.592-2.538-2.512
			c0.094-5.629-0.116-11.266,0.097-16.889c0.101-2.645-0.878-3.259-3.269-3.15c-3.443,0.157-6.904,0.153-10.349,0
			c-2.304-0.102-3.218,0.537-3.135,3.029c0.183,5.442-0.068,10.899,0.109,16.343c0.085,2.592-0.871,3.338-3.31,3.195
			c-2.896-0.169-5.811-0.1-8.715-0.022c-1.742,0.046-2.42-0.626-2.416-2.39c0.036-17.073,0.04-34.146-0.002-51.218
			c-0.005-1.857,0.816-2.319,2.489-2.274c3.085,0.083,6.179,0.123,9.261-0.012c2.035-0.089,2.711,0.666,2.669,2.665
			c-0.101,4.72-0.031,9.444-0.03,14.166C411.714,73.998,411.713,74.978,411.713,76.242z"/>
		<path fill-rule="evenodd" clip-rule="evenodd" d="M45.069,56.232c0,1.338,0,2.31,0,3.282c0,16.432-0.058,32.864,0.059,49.295
			c0.019,2.664-0.788,3.508-3.384,3.3c-2.616-0.21-5.271-0.188-7.892-0.006c-2.391,0.166-2.839-0.874-2.824-3.019
			c0.085-12.165-0.031-24.331,0.1-36.494c0.027-2.513-0.675-3.357-3.181-3.224c-3.44,0.183-6.906,0.202-10.344-0.004
			c-2.708-0.162-3.358,0.908-3.333,3.452c0.113,11.71,0.052,23.421,0.047,35.132c-0.002,4.112-0.011,4.113-4.227,4.116
			c-2.451,0.001-4.906-0.082-7.352,0.023c-1.918,0.084-2.747-0.479-2.739-2.589c0.069-16.977,0.042-33.953,0.035-50.929
			c0-1.254,0.005-2.355,1.775-2.352C16.055,56.245,30.3,56.232,45.069,56.232z"/>
		<path fill-rule="evenodd" clip-rule="evenodd" d="M495.424,69.561c-3.652,0-6.811,0.144-9.948-0.047
			c-2.384-0.145-3.14,0.627-3.118,3.043c0.107,11.892,0.053,23.786,0.045,35.68c-0.003,3.815-0.018,3.818-3.697,3.826
			c-2.361,0.005-4.734-0.157-7.078,0.042c-2.68,0.229-3.611-0.589-3.572-3.442c0.162-11.891,0.068-23.786,0.068-35.679
			c0-0.985,0-1.97,0-3.428c-2.896,0-5.581-0.063-8.261,0.023c-1.628,0.052-2.462-0.524-2.849-2.17
			c-0.845-3.592-1.87-7.143-2.91-11.046c1.259-0.059,2.136-0.136,3.014-0.137c10.713-0.008,21.427,0.049,32.139-0.052
			c2.102-0.02,3.112,0.596,3.542,2.691C493.5,62.285,494.451,65.655,495.424,69.561z"/>
	</g>
</g>
</clipPath>
</defs>
</svg>
