<?xml version="1.0" encoding="utf-8"?>
<!-- Generator: Adobe Illustrator 16.0.1, SVG Export Plug-In . SVG Version: 6.00 Build 0)  -->
<!DOCTYPE svg PUBLIC "-//W3C//DTD SVG 1.1//EN" "http://www.w3.org/Graphics/SVG/1.1/DTD/svg11.dtd">
<svg version="1.1" xmlns="http://www.w3.org/2000/svg" xmlns:xlink="http://www.w3.org/1999/xlink" x="0px" y="0px"
	 width="524.449px" height="161.396px" viewBox="0 0 524.449 161.396" enable-background="new 0 0 524.449 161.396"
	 xml:space="preserve">
<g id="Layer_1">
	<g>
		<path fill-rule="evenodd" clip-rule="evenodd" fill="#005CC3" d="M263.337,0c3.783,0.071,7.943,0.477,11.923,1.254
			c25.659,5.019,44.624,19.201,56.989,42.16c1.304,2.42,2.634,3.264,5.382,3.26c59.758-0.089,119.517-0.071,179.274-0.045
			c1.427,0.001,2.932,0.114,4.264,0.572c2.404,0.827,3.516,3.104,3.237,5.634c-1.416,12.877-2.8,25.758-4.187,38.639
			c-0.932,8.647-1.815,17.3-2.792,25.943c-0.339,3.002-2.396,4.825-5.479,5.079c-0.902,0.074-1.816,0.021-2.724,0.021
			c-58.76,0.001-117.519,0.018-176.277-0.057c-2.476-0.003-3.846,0.806-5.236,2.822c-14.015,20.323-33.332,32.078-57.801,35.353
			c-2.232,0.299-4.476,0.51-6.715,0.761c-1.635,0-3.27,0-4.904,0c-2.237-0.251-4.48-0.461-6.711-0.76
			c-24.454-3.273-43.771-15.014-57.778-35.323c-1.469-2.131-2.931-2.86-5.491-2.857c-59.999,0.08-119.999,0.04-179.997,0.116
			c-3.68,0.005-6.552-0.822-8.314-4.225c0-0.545,0-1.09,0-1.635c0.226-0.866,0.565-1.72,0.66-2.6
			c0.798-7.476,1.512-14.961,2.328-22.435c1.377-12.605,2.878-25.197,4.19-37.809c0.601-5.767,2.037-7.262,7.818-7.262
			c56.294-0.001,112.588-0.024,168.882,0.069c2.768,0.004,4.071-0.878,5.367-3.282C201.618,20.45,220.578,6.27,246.231,1.254
			c3.979-0.778,7.98-1.176,12.199-1.254C260.065,0,261.54,0,263.337,0z M261.024,2.571c-41.781,0.078-77.442,32.286-77.797,76.972
			c-0.354,44.58,34.277,76.839,74.862,78.181c44.604,1.476,79.814-33.259,80.398-76.469C339.076,37.699,304.447,2.808,261.024,2.571
			z M371.397,115.812c16.507,0.026,29.617-12.867,29.611-29.12c-0.007-16.093-12.96-29.184-29.32-29.22
			c-16.85-0.037-29.55,13.25-29.622,29.205C341.993,102.779,355.126,115.785,371.397,115.812z M86.011,58.792
			c-4.052,0-7.503,0.158-10.932-0.052c-2.607-0.159-3.389,0.674-3.368,3.318c0.133,16.432,0.093,32.864,0.125,49.297
			c0.002,0.927,0.125,1.854,0.244,3.504c11.744-9.596,22.917-18.726,34.622-28.29c0,1.74,0,2.711,0,3.682
			c0.001,7.173,0.058,14.346-0.033,21.517c-0.026,2.01,0.673,2.792,2.664,2.733c2.902-0.085,5.815-0.134,8.713,0.019
			c2.413,0.126,3.084-0.824,3.072-3.173c-0.085-16.796-0.042-33.592-0.056-50.388c-0.001-0.843-0.147-1.685-0.285-3.158
			c-11.712,8.734-22.917,17.089-34.767,25.925C86.011,74.969,86.011,67.033,86.011,58.792z M146.932,78.785
			c-0.075-0.712-0.176-1.236-0.178-1.76c-0.013-5.267-0.054-10.535,0.012-15.801c0.021-1.663-0.372-2.524-2.26-2.46
			c-3.265,0.112-6.539,0.099-9.805,0.003c-1.698-0.05-2.238,0.695-2.237,2.254c0.016,17.073,0.02,34.146-0.001,51.218
			c-0.002,1.697,0.614,2.472,2.41,2.416c3.084-0.094,6.177-0.112,9.26,0.008c2.027,0.08,2.683-0.681,2.646-2.688
			c-0.105-5.72,0.039-11.443-0.077-17.162c-0.04-1.993,0.529-2.769,2.595-2.701c3.81,0.126,7.63,0.116,11.44,0.003
			c1.988-0.059,2.717,0.581,2.676,2.644c-0.117,5.81-0.002,11.623-0.057,17.436c-0.016,1.705,0.548,2.501,2.351,2.456
			c3.176-0.079,6.358-0.094,9.534,0.007c1.909,0.06,2.555-0.707,2.527-2.567c-0.078-4.993-0.023-9.988-0.023-14.983
			c0-11.806-0.048-23.611,0.04-35.417c0.017-2.25-0.686-3.116-2.956-2.932c-1.985,0.16-3.994,0.007-5.991,0.037
			c-6.191,0.095-5.405-0.934-5.457,5.521c-0.038,4.779-0.007,9.559-0.007,14.469C157.731,78.785,152.492,78.785,146.932,78.785z
			 M426.774,78.813c0-1.264,0.001-2.244,0-3.225c-0.001-4.722-0.07-9.446,0.03-14.166c0.042-2-0.634-2.754-2.669-2.665
			c-3.082,0.135-6.176,0.096-9.261,0.012c-1.673-0.045-2.494,0.417-2.489,2.274c0.042,17.073,0.038,34.145,0.002,51.218
			c-0.004,1.764,0.674,2.436,2.416,2.39c2.904-0.077,5.819-0.146,8.715,0.022c2.438,0.143,3.395-0.604,3.31-3.195
			c-0.178-5.443,0.073-10.9-0.109-16.343c-0.083-2.492,0.831-3.131,3.135-3.029c3.444,0.153,6.905,0.156,10.349,0
			c2.391-0.109,3.369,0.505,3.269,3.15c-0.213,5.623-0.003,11.26-0.097,16.889c-0.032,1.92,0.672,2.581,2.538,2.512
			c2.721-0.101,5.448-0.018,8.173-0.023c3.574-0.009,3.597-0.014,3.598-3.653c0.01-16.256,0.005-32.511,0.002-48.767
			c0-0.544,0.178-1.219-0.075-1.605c-0.456-0.694-1.153-1.698-1.789-1.728c-3.534-0.167-7.081-0.039-10.622-0.095
			c-1.758-0.027-1.8,1.066-1.796,2.335c0.015,4.904,0.012,9.808-0.003,14.711c-0.004,0.962-0.09,1.924-0.143,2.98
			C437.732,78.813,432.494,78.813,426.774,78.813z M60.13,58.804c-14.769,0-29.014,0.012-43.259-0.015
			c-1.77-0.003-1.776,1.097-1.775,2.352c0.007,16.976,0.034,33.953-0.035,50.929c-0.008,2.109,0.82,2.673,2.739,2.589
			c2.446-0.105,4.901-0.022,7.352-0.023c4.216-0.003,4.225-0.004,4.227-4.116c0.005-11.711,0.065-23.422-0.047-35.132
			c-0.024-2.544,0.625-3.614,3.333-3.452c3.438,0.206,6.904,0.187,10.344,0.004c2.505-0.133,3.208,0.711,3.181,3.224
			c-0.131,12.163-0.015,24.329-0.1,36.494c-0.015,2.145,0.433,3.185,2.824,3.019c2.62-0.183,5.275-0.204,7.892,0.006
			c2.596,0.208,3.403-0.636,3.384-3.3C60.072,94.95,60.13,78.518,60.13,62.086C60.13,61.114,60.13,60.142,60.13,58.804z
			 M510.485,72.132c-0.974-3.906-1.925-7.275-2.626-10.696c-0.43-2.095-1.44-2.711-3.542-2.691
			c-10.712,0.102-21.426,0.044-32.139,0.052c-0.878,0.001-1.755,0.078-3.014,0.137c1.04,3.904,2.065,7.454,2.91,11.046
			c0.387,1.646,1.221,2.222,2.849,2.17c2.68-0.085,5.364-0.023,8.261-0.023c0,1.458,0,2.443,0,3.428
			c0,11.893,0.094,23.788-0.068,35.679c-0.039,2.854,0.893,3.671,3.572,3.442c2.344-0.199,4.717-0.037,7.078-0.042
			c3.68-0.008,3.694-0.011,3.697-3.826c0.008-11.894,0.063-23.788-0.045-35.68c-0.021-2.416,0.734-3.188,3.118-3.043
			C503.674,72.275,506.833,72.132,510.485,72.132z"/>
		<path fill-rule="evenodd" clip-rule="evenodd" fill="#005CC3" d="M356.586,86.741c0.034-8.747,6.923-15.821,15.316-15.73
			c8.162,0.089,14.993,7.341,14.97,15.893c-0.023,8.581-7.156,15.89-15.401,15.781C363.298,102.576,356.552,95.35,356.586,86.741z"
			/>
		<g>
			<path fill-rule="evenodd" clip-rule="evenodd" fill="#005CC3" d="M260.931,155.379c-41.416,0-75.109-33.693-75.109-75.109
				s33.694-75.109,75.109-75.109c41.415,0,75.109,33.694,75.109,75.109S302.346,155.379,260.931,155.379z"/>
			<path fill="#94C73D" d="M260.931,7.661c40.037,0,72.609,32.572,72.609,72.609c0,40.037-32.572,72.609-72.609,72.609
				s-72.609-32.572-72.609-72.609C188.322,40.233,220.894,7.661,260.931,7.661 M260.931,2.661
				c-42.863,0-77.609,34.747-77.609,77.609s34.747,77.609,77.609,77.609c42.862,0,77.609-34.746,77.609-77.609
				S303.793,2.661,260.931,2.661L260.931,2.661z"/>
		</g>
		<polygon fill-rule="evenodd" clip-rule="evenodd" fill="#94C73D" points="290.53,40.052 331.248,111.734 249.915,111.734 		"/>
		<polygon fill-rule="evenodd" clip-rule="evenodd" fill="#94C73D" points="235.53,42.052 276.248,113.734 194.915,113.734 		"/>
	</g>
</g>
<g id="Layer_2" display="none">
	<rect x="-76.085" y="-257.266" display="inline" fill-rule="evenodd" clip-rule="evenodd" width="700" height="700"/>
</g>
</svg>
